<svg width="49" height="36" viewBox="0 0 49 36" fill="none" xmlns="http://www.w3.org/2000/svg">
<path d="M24.5 26.8482C22.0299 26.8482 20.0253 28.8529 20.0253 31.3229C20.0253 33.793 22.03 35.7976 24.5 35.7976C26.97 35.7976 28.9747 33.793 28.9747 31.3229C28.9747 28.8529 26.97 26.8482 24.5 26.8482ZM48.4753 11.2032C42.4912 4.08244 33.7521 0 24.5 0C15.2479 0 6.5102 4.08244 0.524566 11.2032C-0.270497 12.1488 -0.148155 13.5599 0.799035 14.3548C1.2181 14.7068 1.72677 14.8799 2.23535 14.8799C2.87372 14.8799 3.50769 14.6084 3.95062 14.0819C9.08162 7.97697 16.5723 4.47477 24.4999 4.47477C32.4276 4.47477 39.9182 7.97697 45.0491 14.0805C45.4921 14.607 46.126 14.8785 46.7645 14.8785C47.2731 14.8785 47.7832 14.7069 48.2023 14.3534C49.148 13.5598 49.2704 12.1473 48.4753 11.2032ZM24.5 8.94938C17.8909 8.94938 11.6502 11.8653 7.3754 16.9501C6.58041 17.8958 6.70268 19.3068 7.64987 20.1018C8.06893 20.4538 8.57904 20.6269 9.0877 20.6269C9.72608 20.6269 10.36 20.3554 10.8015 19.8288C14.2217 15.7584 19.2154 13.4241 24.5001 13.4241C29.7847 13.4241 34.7784 15.7584 38.2001 19.8288C38.6431 20.3569 39.277 20.6269 39.9138 20.6269C40.4225 20.6269 40.9326 20.4553 41.3517 20.1018C42.2988 19.3068 42.4211 17.8944 41.6262 16.9501C37.3498 11.8654 31.1091 8.94938 24.5 8.94938ZM24.5 17.8988C20.5324 17.8988 16.7871 19.6484 14.2246 22.6986C13.4296 23.6443 13.5519 25.0553 14.4991 25.8503C14.9182 26.2022 15.4283 26.3753 15.9369 26.3753C16.5753 26.3753 17.2093 26.1038 17.6508 25.5773C19.3616 23.5413 21.8584 22.3734 24.5 22.3734C27.1416 22.3734 29.6384 23.5413 31.3492 25.5773C31.7922 26.1054 32.4261 26.3753 33.063 26.3753C33.5717 26.3753 34.0818 26.2038 34.5009 25.8503C35.4481 25.0552 35.5703 23.6442 34.7754 22.6986C32.2128 19.6484 28.4675 17.8988 24.5 17.8988Z" fill="#B9715E"/>
</svg>
