<svg width="52" height="52" viewBox="0 0 52 52" fill="none" xmlns="http://www.w3.org/2000/svg">
<path d="M26 0C11.7 0 0 11.7 0 26C0 40.3 11.7 52 26 52C40.3 52 52 40.3 52 26C52 11.7 40.3 0 26 0ZM26 49.8334C12.8917 49.8334 2.16659 39.1083 2.16659 26C2.16659 12.8917 12.8917 2.16659 26 2.16659C39.1083 2.16659 49.8334 12.8917 49.8334 26C49.8334 39.1083 39.1085 49.8334 26 49.8334Z" fill="#B9715E"/>
<path d="M26 12.675C18.6334 12.675 12.675 18.6334 12.675 26C12.675 33.3666 18.6334 39.3249 26 39.3249C33.3666 39.3249 39.3251 33.3666 39.3251 26C39.3251 18.6334 33.3668 12.675 26 12.675ZM26 37.1583C19.8249 37.1583 14.8416 32.1749 14.8416 26C14.8416 19.8251 19.8251 14.8416 26 14.8416C32.1749 14.8416 37.1583 19.8251 37.1583 26C37.1583 32.1749 32.1751 37.1583 26 37.1583Z" fill="#B9715E"/>
<path d="M29.1416 19.3916H26.9751L21.2334 27.8415V30.0081H26.65V32.7165H29.1416V30.0081H30.7666V27.7331H29.1416V19.3916ZM26.65 27.7333H23.6168L26.65 23.1833V27.7333Z" fill="#B9715E"/>
</svg>
