<svg width="53" height="49" viewBox="0 0 53 49" fill="none" xmlns="http://www.w3.org/2000/svg">
<path fill-rule="evenodd" clip-rule="evenodd" d="M39.91 34.8037C37.2564 36.3155 34.5922 37.8168 31.9175 39.3075C30.5642 40.0581 29.211 40.7982 27.8577 41.5594C27.2974 41.8765 26.7054 42.384 26.0499 42.5003C25.3733 42.6166 24.7495 42.2783 24.1363 42.0457C22.5399 41.4219 20.9118 40.8193 19.3154 40.2061C18.3533 39.8361 18.7339 38.6943 19.2308 38.1445C19.9286 37.3728 21.1655 38.06 21.895 38.3983C23.0051 38.9163 24.1786 39.2229 25.3416 39.5929C27.9317 40.4281 30.6382 36.2204 28.2066 34.5606C27.308 33.9579 26.0182 33.6514 25.0032 33.2496C22.7831 32.3721 20.5524 31.5052 18.3533 30.5748C16.8944 29.9617 15.4248 29.1582 13.839 28.9573C12.3695 28.7776 10.6674 29.0313 9.25068 29.4436C8.46833 29.6656 7.58027 30.0568 6.95651 30.5854C6.53362 30.9449 6.17417 31.4946 6.00501 32.0232V43.8641C6.00501 43.8641 6.07902 44.5407 6.75564 44.3821C8.75378 43.917 11.1325 44.0544 13.1201 44.4879C14.9914 44.9002 16.6935 45.9151 18.4591 46.6234C20.4149 47.4058 22.4236 48.0295 24.4006 48.7273C27.6674 49.8797 29.9933 47.0992 32.5835 45.6402C35.7446 43.8641 38.8951 42.0668 42.0456 40.2907C42.5742 39.9947 43.0923 39.6986 43.6209 39.4026C44.4349 38.9375 45.2173 37.2353 45.1327 36.3578C44.8895 33.6302 41.6862 33.7888 39.91 34.8037Z" fill="#B9715E"/>
<path fill-rule="evenodd" clip-rule="evenodd" d="M3.92228 31.9915H1.26866C0.570898 31.9915 0 32.5624 0 33.2601V43.124C0 43.8217 0.570898 44.3926 1.26866 44.3926H3.92228C4.62005 44.3926 5.19095 43.8217 5.19095 43.124V33.2601C5.19095 32.5624 4.62005 31.9915 3.92228 31.9915ZM3.27738 34.8988C2.74877 34.8988 2.32588 34.4759 2.32588 33.9473C2.32588 33.4187 2.74877 32.9958 3.27738 32.9958C3.80599 32.9958 4.22888 33.4187 4.22888 33.9473C4.22888 34.4653 3.79542 34.8988 3.27738 34.8988Z" fill="#B9715E"/>
<path d="M52.861 25.1511H8.51063V26.959H52.861V25.1511Z" fill="#B9715E"/>
<path fill-rule="evenodd" clip-rule="evenodd" d="M12.3377 24.1786C12.3695 23.8932 12.4223 23.4491 12.5069 22.9839C12.528 22.8888 12.5386 22.7936 12.5598 22.6879C12.5809 22.5822 12.6021 22.4765 12.6338 22.3708C12.6866 22.1487 12.7395 21.9056 12.7924 21.6519C12.8241 21.525 12.8558 21.3875 12.8875 21.2607C12.9298 21.1232 12.9615 20.9858 13.0038 20.8484C13.0884 20.5629 13.173 20.2669 13.2575 19.9603C13.469 19.3471 13.6804 18.6811 13.9659 18.0044C14.0399 17.8353 14.1033 17.6556 14.1773 17.4864C14.2619 17.3173 14.3359 17.1375 14.4205 16.9684C14.505 16.7886 14.5896 16.6195 14.6636 16.4398C14.7482 16.26 14.8434 16.0909 14.9385 15.9111C15.0337 15.7314 15.1288 15.5517 15.224 15.372C15.3191 15.1922 15.4354 15.0231 15.5306 14.8434C15.6363 14.6636 15.742 14.4945 15.8477 14.3147C15.964 14.135 16.0803 13.9659 16.1966 13.7967C16.3129 13.6276 16.4292 13.4478 16.5455 13.2787C16.6723 13.1095 16.7992 12.9404 16.9261 12.7712C17.1692 12.4329 17.4441 12.1052 17.7084 11.788C17.8353 11.6188 17.9833 11.4708 18.1207 11.3122C18.2582 11.1537 18.4062 11.0057 18.5436 10.8471C18.6916 10.6991 18.8396 10.551 18.9771 10.403C19.1251 10.255 19.2625 10.107 19.4211 9.96958C19.5691 9.83214 19.7171 9.6947 19.8652 9.54669C20.0132 9.40925 20.1717 9.28238 20.3198 9.14495C20.6158 8.88064 20.9329 8.63748 21.229 8.39432C21.377 8.26745 21.5356 8.16173 21.6836 8.04544C21.8422 7.92915 21.9902 7.81285 22.1382 7.7177C22.4448 7.50626 22.7408 7.29481 23.0368 7.11509C23.6289 6.73449 24.2103 6.40675 24.7495 6.11073C25.2887 5.82528 25.7962 5.58212 26.2508 5.38125C26.7054 5.18037 27.1071 5.02179 27.4348 4.89493C28.1009 4.64119 28.4921 4.54604 28.4921 4.54604C28.4921 4.54604 28.1115 4.68348 27.4771 5.00065C26.8428 5.30724 25.9547 5.79356 24.9504 6.47018C24.4535 6.80849 23.9143 7.18909 23.3751 7.61198C23.1002 7.82342 22.8359 8.05601 22.5505 8.2886C22.4131 8.40489 22.2756 8.53176 22.1382 8.65863C22.0007 8.78549 21.8633 8.90179 21.7259 9.03922C21.4616 9.30353 21.1761 9.56783 20.9118 9.85328C20.7849 9.99072 20.6369 10.1282 20.5101 10.2762C20.3832 10.4242 20.2563 10.5722 20.1189 10.7202C19.9814 10.8682 19.8652 11.0162 19.7383 11.1748C19.6114 11.3334 19.4846 11.4814 19.3683 11.64C19.252 11.7986 19.1357 11.9571 19.0088 12.1157C18.8925 12.2743 18.7656 12.4329 18.6599 12.6021C18.4379 12.9404 18.2053 13.2575 18.015 13.6064C17.9093 13.7756 17.8141 13.9447 17.7084 14.1139C17.6133 14.283 17.5181 14.4628 17.423 14.6319C17.3278 14.8011 17.2327 14.9702 17.1481 15.15C17.0635 15.3297 16.9789 15.4988 16.9049 15.668C16.8204 15.8371 16.7358 16.0063 16.6618 16.186C16.5878 16.3552 16.5138 16.5349 16.4503 16.7041C16.3763 16.8732 16.3023 17.0424 16.2389 17.2115C16.1755 17.3807 16.1226 17.5498 16.0592 17.719C15.9957 17.8881 15.9429 18.0573 15.8794 18.2159C15.8266 18.385 15.7843 18.5436 15.7314 18.7128C15.52 19.3577 15.3931 19.992 15.2557 20.5629C15.2028 20.8589 15.15 21.1338 15.1077 21.3981C15.0865 21.5356 15.0548 21.6624 15.0337 21.7893C15.0125 21.9162 15.0019 22.043 14.9808 22.1593C14.9491 22.4025 14.9174 22.6245 14.8962 22.8254C14.8856 22.9311 14.8751 23.0262 14.8539 23.1214C14.8434 23.2165 14.8434 23.3117 14.8328 23.3963C14.8011 23.7663 14.7799 24.0412 14.7694 24.2315H51.1377C51.1377 24.1469 51.1377 24.0623 51.1377 23.9777C51.1377 12.6021 42.3522 3.33024 31.3677 2.93907V1.70212C32.4461 1.5964 33.2284 1.25809 33.2284 0.86692C33.2284 0.391171 32.0655 0 30.6382 0C29.211 0 28.048 0.391171 28.048 0.86692C28.048 1.25809 28.8304 1.5964 29.9087 1.70212V2.88621C18.9242 3.27738 10.1387 12.5492 10.1387 23.9249C10.1387 24.0095 10.1387 24.094 10.1387 24.1786H12.3377ZM38.948 6.91421C39.1065 6.96707 39.2968 7.05165 39.5083 7.1468C39.7197 7.24195 39.9629 7.35825 40.2166 7.49568C40.4704 7.63312 40.7452 7.79171 41.0201 7.97143C41.1576 8.05601 41.3056 8.16173 41.443 8.25688C41.517 8.30974 41.5804 8.36261 41.6544 8.41547C41.7285 8.46833 41.8025 8.52119 41.8659 8.57405C42.0033 8.69034 42.1513 8.80664 42.2994 8.92293C42.3734 8.98636 42.4474 9.0498 42.5108 9.11323C42.5848 9.17666 42.6482 9.2401 42.7222 9.3141C42.7962 9.37754 42.8597 9.45154 42.9337 9.51497C42.9971 9.58898 43.0711 9.65241 43.1346 9.72642C43.198 9.80042 43.2614 9.87443 43.3354 9.94843C43.3989 10.0224 43.4729 10.0964 43.5257 10.1704C43.6526 10.329 43.7795 10.477 43.8958 10.6356C43.9592 10.7202 44.012 10.7942 44.0755 10.8788C44.1283 10.9634 44.1812 11.0374 44.2446 11.1219C44.2975 11.2065 44.3504 11.2805 44.4032 11.3651C44.4561 11.4497 44.4984 11.5343 44.5512 11.6188C44.6041 11.7034 44.6569 11.788 44.6992 11.8726C44.7415 11.9572 44.7838 12.0417 44.8367 12.1263C44.879 12.2109 44.9318 12.2955 44.9635 12.38C45.0058 12.4646 45.0375 12.5492 45.0798 12.6338C45.1221 12.7183 45.1538 12.8029 45.1961 12.8769C45.2278 12.9615 45.2596 13.0461 45.2913 13.1201C45.4287 13.4373 45.5239 13.7544 45.6296 14.0399C45.6719 14.1879 45.7142 14.3253 45.7459 14.4628C45.767 14.5262 45.7882 14.5896 45.7987 14.6531C45.8093 14.7165 45.8305 14.7799 45.841 14.8434C45.8727 14.9597 45.8939 15.0759 45.915 15.1817C45.9256 15.2345 45.9362 15.2874 45.9468 15.3297C45.9573 15.3825 45.9679 15.4248 45.9679 15.4671C46.0313 15.816 46.063 16.1649 46.063 16.1649L44.8895 16.1437C44.8895 16.1437 44.879 15.964 44.8472 15.6363C44.8472 15.594 44.8367 15.5517 44.8367 15.5094C44.8261 15.4671 44.8261 15.4143 44.8155 15.372C44.805 15.2768 44.7944 15.1711 44.7732 15.0548C44.7627 15.0019 44.7627 14.9385 44.7521 14.8856C44.7415 14.8222 44.731 14.7694 44.7204 14.7059C44.6992 14.5791 44.6781 14.4522 44.6464 14.3147C44.5829 14.0504 44.5195 13.7439 44.4244 13.4478C44.4032 13.3738 44.3821 13.2892 44.3504 13.2152C44.3186 13.1412 44.2975 13.0567 44.2658 12.9827C44.2341 12.9086 44.2129 12.8241 44.1812 12.7395C44.1495 12.6549 44.1178 12.5809 44.086 12.4963C44.0543 12.4118 44.0226 12.3377 43.9803 12.2532C43.9486 12.1686 43.9063 12.0946 43.864 12.01C43.8217 11.9254 43.79 11.8514 43.7477 11.7669C43.7054 11.6823 43.6632 11.6083 43.6209 11.5237C43.5786 11.4391 43.5363 11.3651 43.4834 11.2805C43.4306 11.2065 43.3883 11.1219 43.3354 11.0374C43.2403 10.8788 43.1346 10.7202 43.0288 10.5616C42.976 10.4876 42.9231 10.4136 42.8702 10.329C42.8174 10.255 42.754 10.181 42.7011 10.107C42.6377 10.033 42.5848 9.95901 42.5214 9.885C42.4579 9.811 42.4051 9.73699 42.3416 9.67356C42.2782 9.59955 42.2148 9.53612 42.1619 9.46211C42.0985 9.38811 42.035 9.32467 41.9716 9.26124C41.8447 9.1238 41.7179 9.00751 41.591 8.88064C41.5276 8.81721 41.4641 8.76435 41.4007 8.70092C41.3373 8.64805 41.2738 8.58462 41.2104 8.53176C41.0835 8.42604 40.9567 8.30974 40.8298 8.21459C40.5761 8.01372 40.3223 7.834 40.0898 7.67541C39.614 7.35825 39.2017 7.13623 38.9057 6.98822C38.6097 6.84021 38.4299 6.77678 38.4299 6.77678C38.4299 6.77678 38.6414 6.79792 38.948 6.91421Z" fill="#B9715E"/>
</svg>
