<?xml version="1.0" encoding="UTF-8"?>
<!DOCTYPE svg PUBLIC "-//W3C//DTD SVG 1.1//EN" "http://www.w3.org/Graphics/SVG/1.1/DTD/svg11.dtd">
<!-- Creator: CorelDRAW 2020 (64-Bit) -->
<svg xmlns="http://www.w3.org/2000/svg" xml:space="preserve" width="215.9mm" height="279.4mm" version="1.1" style="shape-rendering:geometricPrecision; text-rendering:geometricPrecision; image-rendering:optimizeQuality; fill-rule:evenodd; clip-rule:evenodd"
viewBox="0 0 21590 27940"
 xmlns:xlink="http://www.w3.org/1999/xlink"
 xmlns:xodm="http://www.corel.com/coreldraw/odm/2003">
 <defs>
  <style type="text/css">
   <![CDATA[
    .fil0 {fill:#223130}
    .fil3 {fill:#272634}
    .fil4 {fill:#909090}
    .fil1 {fill:white}
    .fil2 {fill:url(#id0)}
   ]]>
  </style>
  <linearGradient id="id0" gradientUnits="userSpaceOnUse" x1="11830.68" y1="12053.1" x2="12836.15" y2="10816.6">
   <stop offset="0" style="stop-opacity:1; stop-color:#D5D5D5"/>
   <stop offset="1" style="stop-opacity:1; stop-color:#FDFDFD"/>
  </linearGradient>
 </defs>
 <g id="Layer_x0020_1">
  <metadata id="CorelCorpID_0Corel-Layer"/>
  <path class="fil0" d="M6751.79 11330.14c533.85,-686.5 1589.22,-1129.7 2410.24,-1338.22 999.6,-253.83 1729.11,-253.83 2728.74,0 821.06,208.52 1876.43,651.72 2410.28,1338.22l34.22 44.06 0.29 55.78c6.49,1537.09 -220.91,3208.79 -1112.7,4503.67 -659.8,958.14 -1567.04,1549.92 -2637.37,1964.23l-59.09 22.89 -59.12 -22.89c-1070.3,-414.31 -1977.53,-1006.09 -2637.33,-1964.23 -891.76,-1294.88 -1119.16,-2966.58 -1112.67,-4503.67l0.22 -55.78 34.29 -44.06zm1320.73 1112.98c472.58,-331.65 2013.79,104.99 2057.85,1062.04 -63.32,-291.33 -361.63,-653.77 -404.95,-518.06 -39.16,-31.57 -56.73,-70.02 -75.56,-153.35 -75.96,10.06 -101.85,91.9 -101.85,91.9 -60.26,-47.06 -94.33,-121.07 -120.3,-196 -55.98,-1.48 -128.41,86.67 -123.44,101.74 -55.95,-34.47 -78.17,-88.9 -147.67,-211.95 -82.37,269.49 -88.79,459.99 -94.54,570.37 -164.01,-218.97 -254.71,-430.18 -316.13,-642.65 -4.97,30.86 -24.3,75.6 -52.49,89.42 -50.87,-43.67 -71.69,-77.68 -95.18,-140.33 3.17,28.68 -21.84,78 -51.01,152.96 -33.8,-8.22 -75.71,-87.87 -101.81,-157.09 -6.32,53.77 -20.96,98.85 -36.2,155.15 -33.19,-9.63 -101.07,-79.41 -113.52,-142.87 -15.28,82.97 -60.26,354.89 17.28,624.63 -138.71,-206.73 -234.03,-312.74 -240.48,-685.91z"/>
  <path class="fil1" d="M7277.76 11553.18c10.66,1383.21 226.06,2903.54 1023.02,4060.89 556.51,808.15 1310.4,1319.82 2192.91,1689.6 11.14,4.2 22.22,8.43 33.3,12.63 10.69,-4.2 21.45,-8.43 32.14,-12.63 114.51,-47.94 226.87,-98.39 336.9,-151.52 33.65,41.03 15.38,383.72 -12.17,513.19 230.11,-422.49 98.39,-1070.44 -199.96,-1417.43 84.25,47.52 469.76,295.7 610.94,773.47 -142.69,-824.87 -692.6,-1105.57 -1072.09,-1183.64 160.66,-168.56 377.51,-450.36 422.07,-729.83 -235.41,425.34 -937.83,1011.77 -1532.72,836.82 -169.86,-49.95 -307.13,-149.05 -276.51,-351.82 -17,129.33 76.49,142.27 92.54,145.45 773.57,5.57 1323.55,-1119.79 1212.39,-1827.64 22.65,475.44 -158.57,818.98 -322.86,809.7 13.4,48.01 43.78,92.81 72.53,109.96 -31.15,43.21 -150.64,50.09 -191.17,53.66 21.59,50.66 68.93,72.7 100.82,91.79 -55.56,86.54 -225.63,131.8 -292.1,95.28 -17.43,39.76 -21.8,71.27 -6.95,126.93 -31.64,51.26 -366.53,14.75 -465.7,-98.24 20.6,54.01 88.72,276.01 257.28,341.27 -82.16,65.09 -172.33,105.84 -268.92,117.8 -109.5,13.58 -101.46,-21.35 -90.42,-117.62 0.88,-7.69 16.02,-98.85 43.01,-172.72 -33.24,25.43 -64.17,59.72 -97.76,99.55 -128.23,-113.42 -190.53,-201.82 -260.07,-309.1 102.94,52.1 276.83,77.68 364.63,62.44 -64.27,-58.49 -97.19,-105.34 -133.77,-161.71 47.06,23.77 120.9,-27.34 172.37,-67.88 -52.25,-50.48 -82.13,-93.41 -114.94,-144.07 48.62,24.59 152.05,-15.56 203.59,-56.55 114.87,-230.68 155.79,-555.63 140.3,-801.9 -25.36,-402.73 -212.51,-717.76 -554.78,-976.56 258.02,259.22 360.82,541.41 410.14,725.59 -125.87,-177.2 -408.87,-641.66 -628.4,-734.13 -71.23,143.65 -108.27,262.82 -133.53,368.23 -227.5,-201.08 -295.34,-599.9 -251.74,-841.3 -55.6,-0.28 -171.45,-335.56 -111.05,-636.45 -114.27,-179.85 -163.45,-580.53 26.77,-616.02 438.08,-81.77 1469.25,-1.45 1469.25,-1.45 22.68,-33.05 51.93,-114.01 142.13,-151.44 584.35,-161.12 1710.38,-330.7 2210.76,4.72 270.3,-100.22 607.16,-196.32 1025.45,-105.79 -371.86,-178.26 -766.51,-310.63 -1093.33,-393.63 -893.51,-226.88 -1577.8,-226.88 -2471.31,0 -637.05,161.78 -1531.8,511.14 -2012.99,1022.1z"/>
  <path class="fil2" d="M9677.51 11305.82c-24.59,35.81 -39.3,77.79 -63.86,113.56l0 0c-416.49,-48.82 -755.4,-125.76 -1170.58,-144.14l0 0c47.51,23.77 79.12,145.87 103.54,265.53l0 0c-73.66,114.58 -333.17,305.37 -436.67,296.55l0 0c-3.28,3.07 -161.01,-49.32 -193.96,-190.33l0 0c-19.68,19.27 165.63,559.4 203.02,611.68l0 0c57.15,-34.96 105.59,-50.62 156.46,-70.76l0 0c662.45,-218.62 2064.99,368.83 2250.93,1665.64l0 0c0.6,60.46 237,-229.87 255.13,-500.63l0 0c213.82,337.61 232.2,1024.29 103.97,1286.41l0 0c404.63,-377.27 548.81,-757.42 593.9,-1171.93l0 0c126.4,750.57 -57.43,1457.29 -227.82,1799.45l0 0c372.14,-209.38 708.16,-523.42 814.56,-827.83l0 0c47.84,474.41 -288.57,1182.97 -680.19,1418.98l0 0c263.56,7.62 1154.32,-573.48 1216.94,-1029.9l0 0c91.79,164.6 135.18,404.88 135.71,599.68l0 0c532.03,-692.36 944.32,-2469.76 813.09,-3038.26l0 0c-378.64,60.4 -771.21,-2.33 -765.25,-79.87l0 0c472.05,-105.97 716.95,-469.76 577.39,-830.4l0 0c-106.29,-386.36 -957.37,-445.84 -1574.73,-237.85l0 0c-136.24,-133.91 -459.77,-184.07 -814.03,-184.07l0 0c-568.19,-0.04 -1215.6,128.97 -1297.55,248.49l0 0z"/>
  <path class="fil3" d="M9851.92 11497.44c83.19,200.59 557.46,452.54 682.31,482.81 -82.2,-36.13 -152.72,-136.91 -170.5,-168.98 253.97,142.17 594.19,-122.2 761.9,10.3 0,0 -32.88,-255.31 -298.56,-341.56 83.19,-59.34 176.04,-73.73 244.26,-60.4 -402.66,-201.08 -808.56,224.09 -1219.41,77.83z"/>
  <path class="fil3" d="M12527.23 12092.68c43.35,216.08 -88.34,520.6 -175.76,606 91.9,-239.96 16.05,-688.62 -103.78,-778.61 26.95,94.93 -8.82,282.64 -88.73,355.28 34.22,-235.02 -60.92,-605.86 -257.7,-715.5 384.81,-162.14 732.36,-326.25 1183.11,-165.74 32.31,11.5 -220.28,15.7 -191.63,26.78 409.43,158.15 445.06,575.8 -365.51,671.79z"/>
  <path class="fil1" d="M10634.91 11551.73c-0.29,221.44 -219.78,145.45 -350.67,86.47 104.85,-3.63 235.27,-54.15 350.67,-86.47z"/>
  <path class="fil1" d="M9887.05 14201.72c-18.31,152.89 -142.17,222.42 -239.86,379.16 -125.62,201.48 -147.81,497.95 -399.91,438.72 -73.23,-75.95 -19.19,-169.09 19.86,-338.32 26.78,-116.09 26.18,-242.46 59.27,-348.36 59.23,-189.55 158.36,-322.76 231.56,-277.67 -39.68,61.38 -87.59,178.36 -128.51,309.06 -60.33,192.66 -17.47,327.77 -87.24,532.63 134.47,-141.75 109.57,-446.2 286.2,-654.23 94.27,-110.98 154.66,-172.05 177.17,-172.79 54.26,-1.8 94.68,21.06 81.46,131.8z"/>
  <path class="fil1" d="M11789.08 11241.4c-93.03,-91.44 -273.26,-143.83 -491.06,-167.85 -612.74,-67.67 -1522.38,89.11 -1620.52,232.27 -24.56,35.84 -39.27,77.78 -63.86,113.55 -416.45,-48.82 -755.4,-125.76 -1170.58,-144.14 49.14,67.38 98.24,151.31 103.57,265.54 -73.66,114.58 -333.16,305.39 -436.7,296.58 -3.25,3.03 -160.98,-49.36 -193.96,-190.33 18.59,150.11 84.91,210.29 155.93,270.16 7.26,132.57 33.58,210.64 58.56,266.91 -10.94,-49.92 -16.33,-155.68 25.86,-256.01 128.87,-40.71 316.9,-60.22 498.4,-325.44 329.36,12.98 999.42,381.28 1231.8,425.35 -101.25,-97.76 -114.97,-176.53 -104.36,-193.85 337.01,251.88 1375.17,545.67 1033.11,396.27 -114.3,-49.92 -119.73,-177.24 -108.58,-169.02 12.06,8.93 377.54,243.49 734.76,194.17 10.55,-1.44 -196.92,-131.27 -186.69,-132.96 150.25,-25.86 256.72,-110.98 194.07,-321.17 -23.6,-68.97 -47.17,-137.93 -70.8,-206.97 142.62,-15.17 285.25,-30.34 427.95,-45.48 -80.5,-29.77 -160.97,-59.54 -241.44,-89.28 50.55,-4.24 739.53,-153.25 748.88,-157.94 -43.54,-9.1 -87.07,-18.17 -130.71,-27.24 151.24,-67.31 754.35,-169.08 1177.33,192.13 -87.21,-269.91 -546.24,-374.51 -1024.36,-335.32 -186.24,15.28 -375.36,52.39 -546.6,110.07zm-733.67 261.48c189.48,99.34 190.04,488.63 190.04,488.63 -298.41,-263.21 -627.77,18.56 -881.7,-180.23 17.75,32.03 88.3,132.85 170.5,168.94 -124.88,-30.23 -599.16,-282.22 -682.34,-482.78 368.16,131.06 732.44,-196.74 1093.89,-121.53 41.81,8.68 255.84,51.15 321.56,152.61 -87.7,-41.59 -156.88,-48.89 -211.95,-25.64z"/>
  <path class="fil4" d="M10596.94 12833.07c-378.57,-416.1 -1896,-1203.79 -2477.95,-574.4 57.15,-34.92 105.59,-50.65 156.46,-70.76 316.94,-104.6 803.31,-24.66 1244.78,229.16 235.93,135.68 459.1,321.07 636.69,554.46 184.61,242.68 320.08,537.28 369.46,882.02 0.64,60.5 237.04,-229.87 255.13,-500.66 213.82,337.67 232.2,1024.32 104,1286.44 404.57,-377.27 548.78,-757.42 593.87,-1171.93 126.43,750.57 -57.4,1457.32 -227.79,1799.48 372.11,-209.41 708.17,-523.45 814.53,-827.86 47.83,474.38 -288.54,1182.97 -680.19,1418.98 263.56,7.62 1154.32,-573.48 1216.94,-1029.9 91.79,164.6 135.18,404.88 135.75,599.58 277.74,-361.39 522.89,-1018.72 675.11,-1645.32 -140.16,324.13 -293.34,534.91 -485.71,697.79 20.4,-357.33 -72.6,-627.52 -156.8,-758.22 -40.68,331.15 -238.2,488.06 -322.48,575.2 -26.1,-473.5 -226.55,-894.71 -370.35,-1085 42.13,283.24 -59.51,535.97 -91.51,657.96 -103.18,-546.77 -226.87,-773.43 -662.34,-1285.38 47.95,232.41 26.18,399.42 -17.42,562.12 -164.47,-352.85 -429.55,-640.33 -836.55,-788.74 98.75,185.95 132.16,350.09 126.37,474.98z"/>
 </g>
</svg>
